<svg width="33" height="32" viewBox="0 0 33 32" fill="none" xmlns="http://www.w3.org/2000/svg">
<path d="M16.1615 0C9.48162 0 7.52802 0.00689289 7.14828 0.0384033C5.77746 0.152382 4.92445 0.368277 3.99515 0.831086C3.27897 1.18681 2.71416 1.59915 2.15672 2.17717C1.14153 3.23129 0.526259 4.52814 0.303532 6.06968C0.195244 6.81805 0.163743 6.97068 0.157344 10.7933C0.154883 12.0675 0.157344 13.7444 0.157344 15.9937C0.157344 22.67 0.164727 24.6221 0.196721 25.0013C0.307469 26.3355 0.516661 27.175 0.959654 28.0932C1.80626 29.8509 3.42319 31.1704 5.32806 31.6627C5.98763 31.8326 6.71611 31.9261 7.65132 31.9705C8.04755 31.9877 12.0862 32 16.1273 32C20.1683 32 24.2094 31.9951 24.5958 31.9754C25.6787 31.9244 26.3075 31.84 27.0028 31.6603C28.9199 31.1655 30.5073 29.8657 31.3712 28.0834C31.8055 27.1873 32.0258 26.3158 32.1255 25.0512C32.1471 24.7755 32.1562 20.3796 32.1562 15.9895C32.1562 11.5988 32.1464 7.21095 32.1247 6.93523C32.0238 5.6502 31.8036 4.78613 31.3552 3.87282C30.9872 3.12519 30.5787 2.56686 29.9856 1.99598C28.9271 0.984699 27.6325 0.369262 26.0899 0.14672C25.3425 0.0386494 25.1936 0.00664672 21.3691 0H16.1615Z" fill="url(#paint0_radial)"/>
<path d="M16.1615 0C9.48162 0 7.52802 0.00689289 7.14828 0.0384033C5.77746 0.152382 4.92445 0.368277 3.99515 0.831086C3.27897 1.18681 2.71416 1.59915 2.15672 2.17717C1.14153 3.23129 0.526259 4.52814 0.303532 6.06968C0.195244 6.81805 0.163743 6.97068 0.157344 10.7933C0.154883 12.0675 0.157344 13.7444 0.157344 15.9937C0.157344 22.67 0.164727 24.6221 0.196721 25.0013C0.307469 26.3355 0.516661 27.175 0.959654 28.0932C1.80626 29.8509 3.42319 31.1704 5.32806 31.6627C5.98763 31.8326 6.71611 31.9261 7.65132 31.9705C8.04755 31.9877 12.0862 32 16.1273 32C20.1683 32 24.2094 31.9951 24.5958 31.9754C25.6787 31.9244 26.3075 31.84 27.0028 31.6603C28.9199 31.1655 30.5073 29.8657 31.3712 28.0834C31.8055 27.1873 32.0258 26.3158 32.1255 25.0512C32.1471 24.7755 32.1562 20.3796 32.1562 15.9895C32.1562 11.5988 32.1464 7.21095 32.1247 6.93523C32.0238 5.6502 31.8036 4.78613 31.3552 3.87282C30.9872 3.12519 30.5787 2.56686 29.9856 1.99598C28.9271 0.984699 27.6325 0.369262 26.0899 0.14672C25.3425 0.0386494 25.1936 0.00664672 21.3691 0H16.1615Z" fill="url(#paint1_radial)"/>
<path d="M16.154 4.18555C12.9457 4.18555 12.5431 4.19958 11.283 4.25694C10.0254 4.31454 9.167 4.5137 8.41588 4.80591C7.63892 5.10772 6.97984 5.51144 6.32322 6.16848C5.66612 6.82528 5.2625 7.48453 4.95979 8.26146C4.66692 9.01303 4.46757 9.87194 4.41097 11.1294C4.35461 12.3898 4.33984 12.7928 4.33984 16.0019C4.33984 19.2111 4.35412 19.6126 4.41122 20.873C4.46905 22.1309 4.66815 22.9896 4.96003 23.7409C5.26201 24.5181 5.66563 25.1774 6.32249 25.8342C6.97886 26.4914 7.63793 26.8962 8.4144 27.198C9.16601 27.4902 10.0247 27.6893 11.282 27.7469C12.5421 27.8043 12.9445 27.8183 16.1525 27.8183C19.361 27.8183 19.7624 27.8043 21.0225 27.7469C22.2801 27.6893 23.1395 27.4902 23.8911 27.198C24.6678 26.8962 25.3259 26.4914 25.9823 25.8342C26.6394 25.1774 27.043 24.5181 27.3457 23.7412C27.6361 22.9896 27.8355 22.1307 27.8946 20.8732C27.9512 19.6128 27.9659 19.2111 27.9659 16.0019C27.9659 12.7928 27.9512 12.3901 27.8946 11.1296C27.8355 9.87169 27.6361 9.01303 27.3457 8.26171C27.043 7.48453 26.6394 6.82528 25.9823 6.16848C25.3252 5.5112 24.6681 5.10747 23.8904 4.80591C23.1373 4.5137 22.2784 4.31454 21.0208 4.25694C19.7607 4.19958 19.3595 4.18555 16.1503 4.18555H16.154ZM15.0943 6.31496C15.4088 6.31447 15.7597 6.31496 16.154 6.31496C19.3081 6.31496 19.6819 6.32628 20.9275 6.3829C22.0793 6.43558 22.7044 6.62809 23.1208 6.78983C23.6721 7.004 24.0651 7.26002 24.4783 7.6736C24.8918 8.08717 25.1477 8.48105 25.3624 9.03248C25.524 9.44852 25.7167 10.0738 25.7692 11.2259C25.8258 12.4715 25.8381 12.8457 25.8381 15.9992C25.8381 19.1527 25.8258 19.5269 25.7692 20.7726C25.7165 21.9247 25.524 22.5499 25.3624 22.966C25.1482 23.5174 24.8918 23.9101 24.4783 24.3234C24.0649 24.737 23.6723 24.993 23.1208 25.2071C22.7049 25.3696 22.0793 25.5616 20.9275 25.6143C19.6822 25.6709 19.3081 25.6832 16.154 25.6832C12.9996 25.6832 12.6258 25.6709 11.3805 25.6143C10.2287 25.5611 9.60359 25.3686 9.18693 25.2069C8.63565 24.9927 8.24188 24.7367 7.82842 24.3231C7.41496 23.9096 7.15901 23.5167 6.9444 22.965C6.78271 22.549 6.59001 21.9237 6.53758 20.7716C6.48098 19.5259 6.46966 19.1517 6.46966 15.9963C6.46966 12.8408 6.48098 12.4686 6.53758 11.2229C6.59025 10.0708 6.78271 9.44556 6.9444 9.02903C7.15851 8.4776 7.41496 8.08372 7.82842 7.67015C8.24188 7.25658 8.63565 7.00055 9.18693 6.78589C9.60335 6.62342 10.2287 6.4314 11.3805 6.37847C12.4703 6.32924 12.8926 6.31447 15.0943 6.312V6.31496ZM22.4598 8.27697C21.6771 8.27697 21.0422 8.91136 21.0422 9.69444C21.0422 10.4773 21.6771 11.1124 22.4598 11.1124C23.2424 11.1124 23.8773 10.4773 23.8773 9.69444C23.8773 8.91161 23.2424 8.27648 22.4598 8.27648V8.27697ZM16.154 9.93373C12.8037 9.93373 10.0874 12.6508 10.0874 16.0019C10.0874 19.3531 12.8037 22.0689 16.154 22.0689C19.5043 22.0689 22.2196 19.3531 22.2196 16.0019C22.2196 12.6508 19.504 9.93373 16.1537 9.93373H16.154ZM16.154 12.0631C18.3286 12.0631 20.0917 13.8265 20.0917 16.0019C20.0917 18.1771 18.3286 19.9407 16.154 19.9407C13.9791 19.9407 12.2163 18.1771 12.2163 16.0019C12.2163 13.8265 13.9791 12.0631 16.154 12.0631V12.0631Z" fill="white"/>
<defs>
<radialGradient id="paint0_radial" cx="0" cy="0" r="1" gradientUnits="userSpaceOnUse" gradientTransform="translate(8.65629 34.4647) rotate(-90) scale(31.7144 29.4969)">
<stop stop-color="#FFDD55"/>
<stop offset="0.1" stop-color="#FFDD55"/>
<stop offset="0.5" stop-color="#FF543E"/>
<stop offset="1" stop-color="#C837AB"/>
</radialGradient>
<radialGradient id="paint1_radial" cx="0" cy="0" r="1" gradientUnits="userSpaceOnUse" gradientTransform="translate(-5.20392 2.30523) rotate(78.6806) scale(14.1765 58.4359)">
<stop stop-color="#3771C8"/>
<stop offset="0.128" stop-color="#3771C8"/>
<stop offset="1" stop-color="#6600FF" stop-opacity="0"/>
</radialGradient>
</defs>
</svg>
