<svg width="32" height="27" viewBox="0 0 32 27" fill="none" xmlns="http://www.w3.org/2000/svg">
<path d="M10.06 26.01C22.14 26.01 28.74 16.01 28.74 7.33C28.74 7.05 28.73 6.76 28.72 6.48C30 5.55 31.12 4.4 32 3.08C30.82 3.6 29.56 3.96 28.23 4.11C29.59 3.3 30.63 2.01 31.12 0.48C29.85 1.23 28.45 1.78 26.95 2.07C25.75 0.8 24.04 0 22.16 0C18.53 0 15.59 2.94 15.59 6.57C15.59 7.09 15.65 7.59 15.76 8.07C10.3 7.79 5.46 5.17 2.23 1.2C1.66 2.17 1.34 3.3 1.34 4.5C1.34 6.78 2.5 8.79 4.26 9.96C3.18 9.93 2.17 9.64 1.29 9.15C1.29 9.18 1.29 9.2 1.29 9.23C1.29 12.41 3.55 15.06 6.56 15.67C6 15.82 5.42 15.9 4.82 15.9C4.4 15.9 3.99 15.86 3.59 15.78C4.43 18.39 6.85 20.29 9.72 20.34C7.47 22.1 4.64 23.15 1.57 23.15C1.04 23.15 0.52 23.12 0 23.06C2.91 24.92 6.36 26.01 10.06 26.01Z" fill="#1DA1F2"/>
</svg>
