<svg width="32" height="22" viewBox="0 0 32 22" fill="none" xmlns="http://www.w3.org/2000/svg">
<path d="M30.5729 3.43484C30.2145 2.0829 29.1553 1.01839 27.8123 0.656452C25.3781 0 15.6129 0 15.6129 0C15.6129 0 5.84774 0 3.41355 0.656452C2.07048 1.01839 1.01129 2.0829 0.652903 3.43484C0 5.88677 0 11 0 11C0 11 0 16.1132 0.652903 18.5652C1.01129 19.9171 2.07048 20.9816 3.41355 21.3435C5.84774 22 15.6129 22 15.6129 22C15.6129 22 25.3781 22 27.8123 21.3435C29.1553 20.9816 30.2145 19.9171 30.5729 18.5652C31.2258 16.1132 31.2258 11 31.2258 11C31.2258 11 31.2258 5.88677 30.5729 3.43484Z" fill="#FF0000"/>
<path d="M12.418 15.6435L20.5793 11.0005L12.418 6.35742V15.6435Z" fill="white"/>
</svg>
